<svg width="24" height="24" viewBox="0 0 24 24" fill="none" xmlns="http://www.w3.org/2000/svg">
<path d="M21.995 22.0001V21.9993H22V14.6643C22 11.0759 21.2275 8.31177 17.0324 8.31177C15.0158 8.31177 13.6624 9.41844 13.1099 10.4676H13.0516V8.64677H9.0741V21.9993H13.2158V15.3876C13.2158 13.6468 13.5458 11.9634 15.7016 11.9634C17.8258 11.9634 17.8574 13.9501 17.8574 15.4993V22.0001H21.995Z" fill="white"/>
<path d="M2.32996 8.64746H6.47662V22H2.32996V8.64746Z" fill="white"/>
<path d="M4.40167 2C3.07583 2 2 3.07583 2 4.40167C2 5.7275 3.07583 6.82583 4.40167 6.82583C5.7275 6.82583 6.80333 5.7275 6.80333 4.40167C6.8025 3.07583 5.72667 2 4.40167 2V2Z" fill="white"/>
</svg>
